<?xml version="1.0" encoding="UTF-8" standalone="no" ?>
<!DOCTYPE svg PUBLIC "-//W3C//DTD SVG 1.1//EN" "http://www.w3.org/Graphics/SVG/1.1/DTD/svg11.dtd">
<svg xmlns="http://www.w3.org/2000/svg" xmlns:xlink="http://www.w3.org/1999/xlink" version="1.1" width="540" height="148" viewBox="0 0 540 148" xml:space="preserve">
<desc>Created with Fabric.js 3.6.6</desc>
<defs>
</defs>
<g transform="matrix(4.56 0 0 4.56 74.2 74.2)"  >
<g style=""   >
		<g transform="matrix(1 0 0 1 0 0.02)"  >
<linearGradient id="SVGID_paint0_linear_2753_16477_5" gradientUnits="userSpaceOnUse" gradientTransform="matrix(1 0 0 1 0 0)"  x1="20.0016" y1="3.90625" x2="20.0016" y2="36.127">
<stop offset="0%" style="stop-color:rgb(164,193,255);stop-opacity: 1"/>
<stop offset="100%" style="stop-color:rgb(14,120,249);stop-opacity: 1"/>
</linearGradient>
<path style="stroke: none; stroke-width: 1; stroke-dasharray: none; stroke-linecap: butt; stroke-dashoffset: 0; stroke-linejoin: miter; stroke-miterlimit: 4; fill: url(#SVGID_paint0_linear_2753_16477_5); fill-rule: nonzero; opacity: 1;"  transform=" translate(-20, -20.02)" d="M 15.3419 3.91457 C 15.9388 3.91872 16.5353 3.92287 17.1047 3.92287 H 22.8985 C 23.4679 3.92287 24.0644 3.91872 24.6613 3.91457 C 26.2681 3.90339 27.8773 3.89219 28.9664 3.96194 C 32.9313 4.21584 35.6657 6.61819 36.0172 10.7002 C 36.1006 12.1671 36.0986 13.9341 36.0962 16.018 V 16.0186 C 36.0958 16.3763 36.0954 16.7433 36.0954 17.1197 V 22.9135 C 36.0954 23.2899 36.0958 23.6569 36.0962 24.0146 C 36.0986 26.0988 36.1006 27.866 36.0172 29.333 C 35.6657 33.4151 32.9313 35.8174 28.9664 36.0713 C 27.8773 36.1411 26.2681 36.1299 24.6613 36.1187 C 24.0644 36.1145 23.4679 36.1104 22.8985 36.1104 H 17.1047 C 16.5353 36.1104 15.9388 36.1145 15.3419 36.1187 C 13.7351 36.1299 12.1259 36.1411 11.0368 36.0713 C 7.07192 35.8174 4.33754 33.4151 3.98598 29.333 C 3.90263 27.8662 3.90464 26.0991 3.90701 24.0152 V 24.0146 C 3.90742 23.6569 3.90784 23.2899 3.90784 22.9135 V 17.1197 C 3.90784 16.7433 3.90742 16.3763 3.90701 16.0186 V 16.018 C 3.90464 13.9341 3.90263 12.1671 3.98598 10.7002 C 4.33754 6.61819 7.07192 4.21584 11.0368 3.96194 C 12.1259 3.89219 13.7351 3.90339 15.3419 3.91457 Z" stroke-linecap="round" />
</g>
		<g transform="matrix(1 0 0 1 -3.05 -0.02)"  >
<linearGradient id="SVGID_paint1_linear_2753_16477_6" gradientUnits="userSpaceOnUse" gradientTransform="matrix(1 0 0 1 0 0)"  x1="16.9531" y1="13.9062" x2="16.9531" y2="26.0547">
<stop offset="0%" style="stop-color:rgb(255,255,255);stop-opacity: 1"/>
<stop offset="100%" style="stop-color:rgb(197,212,247);stop-opacity: 1"/>
</linearGradient>
<path style="stroke: none; stroke-width: 1; stroke-dasharray: none; stroke-linecap: butt; stroke-dashoffset: 0; stroke-linejoin: miter; stroke-miterlimit: 4; fill: url(#SVGID_paint1_linear_2753_16477_6); fill-rule: nonzero; opacity: 1;"  transform=" translate(-16.95, -19.98)" d="M 9.14062 15.3906 C 9.14062 14.5708 9.8052 13.9062 10.625 13.9062 H 21.0156 C 23.0867 13.9062 24.7656 15.5852 24.7656 17.6562 V 24.5703 C 24.7656 25.3901 24.101 26.0547 23.2812 26.0547 H 12.8906 C 10.8196 26.0547 9.14062 24.3758 9.14062 22.3047 V 15.3906 Z" stroke-linecap="round" />
</g>
		<g transform="matrix(1 0 0 1 -3.05 -0.02)"  >
<linearGradient id="SVGID_paint2_linear_2753_16477_7" gradientUnits="userSpaceOnUse" gradientTransform="matrix(1 0 0 1 0 0)"  x1="16.9531" y1="13.9062" x2="16.9531" y2="26.0547">
<stop offset="0%" style="stop-color:rgb(255,255,255);stop-opacity: 1"/>
<stop offset="100%" style="stop-color:rgb(99,122,202);stop-opacity: 1"/>
</linearGradient>
<path style="stroke: url(#SVGID_paint2_linear_2753_16477_7); stroke-width: 0.351562; stroke-dasharray: none; stroke-linecap: butt; stroke-dashoffset: 0; stroke-linejoin: miter; stroke-miterlimit: 4; fill: none; fill-rule: nonzero; opacity: 1;"  transform=" translate(-16.95, -19.98)" d="M 9.31641 15.3906 C 9.31641 14.6679 9.90228 14.082 10.625 14.082 H 21.0156 C 22.9896 14.082 24.5898 15.6823 24.5898 17.6562 V 24.5703 C 24.5898 25.293 24.004 25.8789 23.2812 25.8789 H 12.8906 C 10.9166 25.8789 9.31641 24.2787 9.31641 22.3047 V 15.3906 Z" stroke-linecap="round" />
</g>
		<g transform="matrix(1 0 0 1 8.3 0)"  >
<linearGradient id="SVGID_paint3_linear_2753_16477_8" gradientUnits="userSpaceOnUse" gradientTransform="matrix(1 0 0 1 0 0)"  x1="28.3008" y1="14.0234" x2="28.3008" y2="25.9673">
<stop offset="0%" style="stop-color:rgb(255,255,255);stop-opacity: 1"/>
<stop offset="100%" style="stop-color:rgb(197,212,247);stop-opacity: 1"/>
</linearGradient>
<path style="stroke: none; stroke-width: 1; stroke-dasharray: none; stroke-linecap: butt; stroke-dashoffset: 0; stroke-linejoin: miter; stroke-miterlimit: 4; fill: url(#SVGID_paint3_linear_2753_16477_8); fill-rule: nonzero; opacity: 1;"  transform=" translate(-28.3, -20)" d="M 25.7031 18.2073 C 25.7031 17.702 25.9205 17.2212 26.2999 16.8875 L 29.2769 14.2687 C 29.9077 13.7137 30.8984 14.1617 30.8984 15.0019 V 24.9888 C 30.8984 25.8212 29.9239 26.272 29.2896 25.733 L 26.5569 23.4113 C 26.0153 22.9511 25.7031 22.2763 25.7031 21.5656 V 18.2073 Z" stroke-linecap="round" />
</g>
		<g transform="matrix(1 0 0 1 8.3 0)"  >
<linearGradient id="SVGID_paint4_linear_2753_16477_9" gradientUnits="userSpaceOnUse" gradientTransform="matrix(1 0 0 1 0 0)"  x1="28.3008" y1="14.0234" x2="28.3008" y2="25.9673">
<stop offset="0%" style="stop-color:rgb(255,255,255);stop-opacity: 1"/>
<stop offset="100%" style="stop-color:rgb(99,122,202);stop-opacity: 1"/>
</linearGradient>
<path style="stroke: url(#SVGID_paint4_linear_2753_16477_9); stroke-width: 0.351562; stroke-dasharray: none; stroke-linecap: butt; stroke-dashoffset: 0; stroke-linejoin: miter; stroke-miterlimit: 4; fill: none; fill-rule: nonzero; opacity: 1;"  transform=" translate(-28.3, -20)" d="M 25.8789 18.2073 C 25.8789 17.7526 26.0746 17.3198 26.416 17.0195 L 29.393 14.4007 C 29.9103 13.9456 30.7227 14.3129 30.7227 15.0019 V 24.9888 C 30.7227 25.6713 29.9235 26.041 29.4034 25.5991 L 26.6707 23.2773 C 26.1684 22.8506 25.8789 22.2247 25.8789 21.5656 V 18.2073 Z" stroke-linecap="round" />
</g>
</g>
</g>
<g transform="matrix(7.24 0 0 7.24 348.28 80.02)" style=""  >
		<text xml:space="preserve" font-family="'Open Sans', sans-serif" font-size="18" font-style="normal" font-weight="normal" style="stroke: none; stroke-width: 1; stroke-dasharray: none; stroke-linecap: butt; stroke-dashoffset: 0; stroke-linejoin: miter; stroke-miterlimit: 4; fill: rgb(255,255,255); fill-rule: nonzero; opacity: 1; white-space: pre;" ><tspan x="-27.45" y="5.65" style="stroke-width: 1; font-family: 'Open Sans', sans-serif; font-size: 18px; font-style: normal; font-weight: normal; ">MOOZ</tspan></text>
</g>
</svg>